<svg xmlns="http://www.w3.org/2000/svg" viewBox="0 0 556.19 167.8">
    <defs>
        <style>.a{fill:#e0d9d9;}</style>
    </defs>
    <title>A</title>
    <path class="a"
          d="M409.46,245.56c.4,1.8,2,3,2,4.4l3,1.8c2.21.4,4.21-.8,6-.2.4.2.4.8-.4,1.4-4,2.6-8.6,5-13,7.6-7.79,4.6-18.19,11-28.59,16.4h-1l-1.8-3,9.6-8.6,5.2-10.8c1-4.2,2-9.8,1.6-14.8l-1.4-3.2c-1.4-1-2.2-1.4-3.8-.8l-29.6,9.8-24.2,10.2a30.58,30.58,0,0,0-5.4,3.4,7.43,7.43,0,0,0-4.2.4c-.8,1.6-2.6,2.2-3.8,3.6-1.4,0-3.2-.6-5.2-.4-1.6,1-2,2.2-3.6,3a34,34,0,0,1-6.8,2.4c-6,2.6-12,5.4-18,8.2l-12,2.2-12.8.6c-1.8-.2-4-.6-4-1.4,0-1.4,1.4-2.8,2.4-3.4l5-2.6a114.65,114.65,0,0,0,13.2-3.8c5.4-3.2,11.2-7.2,17-10.2l21.2-17.4,5.2-3,13.2-12.2a6.91,6.91,0,0,1,2.4-.6c1.6-1.2,2-3,3.8-4.4,19.2-15.2,35.6-29.6,53.4-43l3-3.2,3.41-1.4c.4-1,4-3,4-4.4,2.41-2.8,5.4-4.6,9.4-7.6l.81-2.4,4-2.6.79-2.4,4.4-4.4,3.4-5,11-1.2,11,.6c2.4-3.2,7.6-6,14.4-8l2.4.4-1.2,3.6a55.23,55.23,0,0,0-7.6,11.6c-4.2,7.8-9.2,17.4-14.4,27.4l-8.2,14.6-1.2,4.8-4,5.4-2,6.2-5.2,9-.8,3.8-4,5.6-.4,3.6-3.2,3.6C412.27,238.36,410.86,241.76,409.46,245.56Zm17-78h-1.2c-20.39,16.2-35.79,27.8-51.19,40.4l-7.6,5.6c-1.4,1.4-2.4,4-3.8,5.2a37.88,37.88,0,0,0-3.6,1.2c-.6.8-.8,2.4-1.8,3.2a12.37,12.37,0,0,0-3.2.8c-1.2.8-1.4,2.4-2.4,3.2-1.8,1.2-3.6,2.6-5.4,3.8l-7,7.2-2,3c.6,1.4,2,.8,3,1.4l17.6-3.4c4.2-1.8,8.6-2.2,12-3.6,10.2-2.8,18-5.4,31.4-10.2,7.6-17.2,16-33.4,25.19-55Z"
          transform="translate(-257.27 -123.76)"/>
    <path class="a"
          d="M560.86,127.36c-4.6,4.6-16,13.8-17.4,19-.8,1.2-3.2.8-4,2.6,1.4,3-4.2,5.2-6.4,7.8-.4,0-1,.6-1.4,1.2-1.8,2.2-4.2,5-7,8.2a17.27,17.27,0,0,0-2,3.2v.4c-2.6,3.4-6,7.6-6.2,9.4a14.59,14.59,0,0,0-2,1.8h-.8a3,3,0,0,1-1.2-2.2c0-2.8,5.4-7.6,6.8-9.4v-.8a4.78,4.78,0,0,0-1.8-.6,20.8,20.8,0,0,0-3,.4c-.6.4-1,1-1.6,1.2a1.55,1.55,0,0,1-.6-.2c-.8,1.2-2.8,2.4-2.8,4-.2.2-.8.2-1.2.2a18,18,0,0,1-3.2,3.6,16.35,16.35,0,0,1-2.4,4c-.2,0-.4-.2-.8-.2a8.79,8.79,0,0,1-2.4,3.6c-.4.4-2.4,2.2-1.8,3.2h-1a13.79,13.79,0,0,0-1.4,3c-1,1.2-2.4,2-2.2,3.2-9.6,9-12.4,12.6-14,15.8-1,.2-1.8,1.4-2.6,2.2-1.6,1.6-3.6,8-5.6,9.8l-4.4,6.8-2.2,3.8c-.6,3-2.8,4.2-4.4,8.6l.6.6c.8-.4,1.8,0,2.4,0l.6-.6,13-4.4s0,.2.4.2c.8,0,3.4-1.8,5-1.8l1.2.2v1.2a2,2,0,0,0-1,1.6c-3.6,2.2-9.2,5-13.2,8.6-3,2.2-7.2,5-10.4,7.8-.4.4-.8,1.4-1.6,2.4a12.47,12.47,0,0,1-3.4,2.2c-.8.8-1.4,2.2-2.4,3.2a3.29,3.29,0,0,0-2.4,1.6c-.2,0-.8.2-1,.2-1.8.6-2.4,2.8-4.8,7.6a2.14,2.14,0,0,1-.6,2c0,1.4-1.8,4.4-3.6,4.8a31.88,31.88,0,0,1-6.4,3.2c-5.2,3.4-15,10-15.8,10h-2c-.41-.6-1-1.2-1.2-1.2a3.76,3.76,0,0,0-2-3v-1.6a15.92,15.92,0,0,1,4-1.4c1.6-1,2-2.4,2.79-3.6,1.4-1,3.81-3.6,4.21-5.2,0-.4.79-1.2,1.19-1.4a7,7,0,0,0,2.21-1c2-2.6,2.19-4.2,3.39-6.6a4.56,4.56,0,0,1,2.8-2.2c1-1.6,2-3.8,2.81-5.2s1.59-3.2,2.59-5c0-2.4,2.4-3.6,3.8-5.4a9.74,9.74,0,0,0,.2-2.4l2-1.8c3.4-4,5.4-7.4,6.4-10.6v-1l12.4-17.2a1.69,1.69,0,0,0-.4-1.2l50.8-68.4c2.4-1.8,5.4-4.4,8-6,1.4-.2,2.8-1.4,4-2.4,1.2-.2,3.2-1,3.8-1s1,.2,1.6.2,2.4-1.6,3.4-2.2h.8c.6,0,.8.4,1.4.8h.6a6.76,6.76,0,0,0,2-.8,10.87,10.87,0,0,1,1.6-.8,7.11,7.11,0,0,1,2,.4c2.6-1.4,5.8-2.6,8.6-3.8,1.4-1.4,3-3.4,4.4-4.8,1.8-.6,4-1.4,5.6-2,.4,0,.6.2.6.4l.6.6h.6l.2-.2h.2C562.46,125.36,561.46,126.56,560.86,127.36Z"
          transform="translate(-257.27 -123.76)"/>
    <path class="a"
          d="M558.66,198l-1.8,5,.2.2-6,11.2-4.6,6.4-2.2,3.6-.4.4,3.2,3.6-6,4.6-4.2,1-22.6,9.8-1.6,1-7.4,2.6-3.4,3.2-2.8,1.6-1.8,2.4v4.6l1.8,3.4,8-.4,7.2-3,11.8-7,2-1.2,7-4.4,8.2-6.6,3.4-2.6,1,.8-2,6.2-.8,1-3.4.2-.6,2-3,.4-2.6,2.4-8.6,6.6-12.8,8-23.4,9.8-7.4.8-3.8-1-1.8-1-1.8-3.4-.4-7.4,3.8-9.2-1.6-2.8,4.2-2,.6-1.4,3.8-5.2,2.4-4-.2-.6,8.8-8.8,6.6-6.6.2-2.2,7-5.8,4.4-4.6,2.6-1.6,3.8-3.2,8-3.2,7-3.6,3.8-1.4,9.8-2.8h6.8l1.6.6Zm-23.8,13.2-4.8,1.2-7.4,5-3.8,5.4-3,2-4.8,6.4-5.6,8.2,5.2.4.4-.4,5.4-1.6,8.8-4,11.2-7.4,2.8-5.6.6-4-.8-5.6Z"
          transform="translate(-257.27 -123.76)"/>
    <path class="a"
          d="M591.06,231.16l-1.8,5.6.2,1-2.2,4.6-3.2,6.2-2.8,7.8-1,1.6v1l2.6,1.2,10.2-.6.4-1.2h3.4l.6-.6,2.8-.6,1.2-.6h.6l-.6,1.8-7.2,4.4-5.2,1.8-3,.8-3.8,1-3.2,1.6-1.8.2-10,9.6-10.6,6.6-6.2,1.2-5.2-.4-1.8.8-2.8-.8-4.4-3.6-2.4-4.6v-1.2l-.6-.2h-.6l.4-1-2.8-5-3.8-2.8-1.4-1.6v-.6l7.4-4.6,3-1.6,6.4-1.8,7,3.4,5.8,2.2,12.2-.4,3.6-7,2.4-5,.8-5,4.6-12,2.4-3.8,6-15.2,4.4-9,4.4-8,3.8-1.8,1.2-2.6,2.6-.8h4.2l6.8-4.8,3.6-.6c1.4,0,3.6-.2,4.8-.2a5.8,5.8,0,0,1,3.6,1c.8.4,1,1.8.8,3-.6,2.8-.2,5.6-.2,8.4l-6.4,11.4-4,5.4-4.8,7.2-2,4.2-4.2,7c-.4,1.4-.8,2.4-1.8,2.4-1.6-4.8-2.6-6.8-7.4-8.6Zm-27.8,38-1-.2-9.2.2-6.4,1-.4.8,3.6,3.6,3.4,1.2h5.4l3.6-3,1.4-3.6Z"
          transform="translate(-257.27 -123.76)"/>
    <path class="a"
          d="M649.66,231.16l-1.8,5.6.2,1-2.2,4.6-3.2,6.2-2.8,7.8-1,1.6v1l2.6,1.2,10.2-.6.4-1.2h3.4l.6-.6,2.8-.6,1.2-.6h.6l-.6,1.8-7.2,4.4-5.2,1.8-3,.8-3.8,1-3.2,1.6-1.8.2-10,9.6-10.6,6.6-6.2,1.2-5.2-.4-1.8.8-2.8-.8-4.4-3.6-2.4-4.6v-1.2l-.6-.2h-.6l.4-1-2.8-5-3.8-2.8-1.4-1.6v-.6l7.4-4.6,3-1.6,6.4-1.8,7,3.4,5.8,2.2,12.2-.4,3.6-7,2.4-5,.8-5,4.6-12,2.4-3.8,6-15.2,4.4-9,4.4-8,3.8-1.8,1.2-2.6,2.6-.8h4.2l6.8-4.8,3.6-.6c1.4,0,3.6-.2,4.8-.2a5.8,5.8,0,0,1,3.6,1c.8.4,1,1.8.8,3-.6,2.8-.2,5.6-.2,8.4l-6.4,11.4-4,5.4-4.8,7.2-2,4.2-4.2,7c-.4,1.4-.8,2.4-1.8,2.4-1.6-4.8-2.6-6.8-7.4-8.6Zm-27.8,38-1-.2-9.2.2-6.4,1-.4.8,3.6,3.6,3.4,1.2h5.4l3.6-3,1.4-3.6Z"
          transform="translate(-257.27 -123.76)"/>
    <path class="a"
          d="M656.26,274.56a21.61,21.61,0,0,0,.8-3.4c.4-.4.8,0,1,.2a83.45,83.45,0,0,0,6.8-7.6c.2-.4.4-1,.6-1h.6l5.8-8.2.4-.6c.8-1,1.8-2.2,2.6-3.2,6.4-10.8,12.8-21.8,19.4-32.4a19.92,19.92,0,0,0,2-2.2,38.29,38.29,0,0,0,1.4-7.2c.6-.4,1.2-1.2,2-1.8,1.2-.2,4-1.2,4.4-4,4-1.6,8.4-3.2,12.6-4.6,2.6-1,7.8-1.8,11.4-2.6.4,0,1.2-.2,1.6-.2h.8l.6.6-.2,2.4c-1.6,1.4-4.2,4-6.2,5.8-1.8,2.4-4,5.4-5.8,8.2-1.6.4-3.4,2.8-4.2,4.6a46.54,46.54,0,0,1-3.2,4l-.6.8-8.8,14.2c0,.4-.2.8-.2,1.2a2.67,2.67,0,0,0-1.6,2.4c0,.2.6.2.8.4l14.6-5.4c.2.2,1,.2,1,.6V238c-1.2,1.4-3.2,2.8-4.6,4.2-2.2,1-4.8,2.4-7,3.4-2,1.2-4.6,3.2-7.4,5.2-5.8,3.8-11.6,8.8-18.2,13.4-1,1-1.4,2.2-2.6,3.2-1,.8-2.4,2.4-3.8,3.6a23.59,23.59,0,0,0-3.6,2.6,14.77,14.77,0,0,1-3.8.6c-2.8,2.6-3.6,4-5.6,4A4.07,4.07,0,0,1,656.26,274.56Zm63.8-83a5.5,5.5,0,0,0,.2-2.4l8.6-14.6a5,5,0,0,0-1.4-2.4v-1.4c0-.4,4-5.8,5.6-8.6,1-.8,2.8-2,4-3-.4-.8,1.2-3.2,2-4.2a9.37,9.37,0,0,1,3.6-4.8c.8-.4,9-3.2,11-3.2h3.4c.2.2.6.4.8.6-1,4-6.8,9-9.2,12.4a.62.62,0,0,0,.2.4l-.6.6c.2,1.8.6,3,.6,3.8a3.86,3.86,0,0,1-.6,2,46,46,0,0,0-5,4.6,20.91,20.91,0,0,1-3.8,3.4c-5,3-10.4,6.4-12.2,11.8a12.94,12.94,0,0,0-.8,2.6c-.8,1.6-3.6,3-5,3A3,3,0,0,0,720.06,191.56Z"
          transform="translate(-257.27 -123.76)"/>
    <path class="a"
          d="M733.26,266.76l-2.8,1.6-3.2.6-6,3.8-3.8-.4-2,.2-1.2-.6-2-2.8-.2-1,.4-1.6,1.2-5.4,1.6-3,2-4.2,1.4-2.8,2-4-.2-1.6,1.8-1.4,1-2,5.4-7.6,4.6-4.2,5.4-5.4,1.6-.6,6.6-6h1.4l1.8-2.8,8-5,3.6-2,2-2.2,1.6-.4,3.2-1.4,3.8-2.8,4.4-.8,5,1.4a29.86,29.86,0,0,1,9.2,4.4,70.07,70.07,0,0,1,5.6-5.4c2.4-1.4,4-3.6,6-4l5.2-3.6,1.6-.2,4.2,7.2-.2,2.2-11.2,14.2-1.8,2.2-.6,3-3,2-1.6,2.4-2.2,5.2-3,4.2-3.2,6-1,2.8-.4,2.2-1.8,2.4-1,3.4-2.6,3-1.6,4v1.4l-1.2,1.8v2.2l-3.2,4.6-1.6,7a18.07,18.07,0,0,0,.8,5.6c.8,1.8,1.4,3.8,0,3.8a4.58,4.58,0,0,1-3.2-1.4,23.11,23.11,0,0,1-4-6.4c-.6-2.6-1.4-5.2-2-7.6l-1.2-1.2-1.2-5.6-.6-1.4.4-3,.4-1.8-.4-4.4h-2l-1.6,1h-1.4l-4.4,2-4.4,1.6-3.2,3-1.8.8-3,1.8-3,1Zm3.8-9.4,11.8-5,9.4-6.6,4.6-2,5.2-8.2,2.6-.8,8-9.8h2.2l3-2.6-.6-1.6-7.4-4.4-3-1.4-3.8-.6-8,6.2-3.4,2.4-1.2,2-2.8.4-.8,3.2-4.8,5.2-1.2,5.4-4.2,3-.6,2.4-1.6,1.4-2.4,5Z"
          transform="translate(-257.27 -123.76)"/>
</svg>